<svg xmlns="http://www.w3.org/2000/svg" width="211" height="85" fill="none"><path fill="#FED000" d="M32.1 0h-.06c-.16.02-.31.16-.36.33L30.5 4.65c-.11.23-.22.47-.6.53l-3.94.79c-.14.03-.29.17-.33.34-.04.18.01.37.13.45l2.82 1.47c.56.35.53.83.33 1.83l-.87 4.23c-.04.17.02.36.14.45.13.08.3.05.42-.08.98-.95 1.76-1.8 2.77-2.84.51-.54 1-.28 1.37-.07l2.99 1.95c.13.07.3.05.41-.07a.53.53 0 0 0 .13-.48l-1.19-4c-.15-.42-.05-.74.19-1.1C36.3 6.6 37.35 6 38.39 5a.51.51 0 0 0 .12-.48c-.05-.16-.2-.26-.35-.23l-3.91.34c-.38.02-.4-.33-.52-.56L32.36.23a.3.3 0 0 0-.27-.23ZM14.07 6.6 14 6.6c-.1.03-.19.16-.2.29l-.48 3.1c-.06.17-.11.35-.35.45l-2.49 1.19c-.08.04-.17.16-.18.28-.02.13.02.24.11.28l1.9.52c.38.15.41.48.34 1.2l-.29 2.98c-.01.12.03.24.11.27.1.03.21 0 .27-.1.57-.82 1.01-1.51 1.6-2.39.3-.44.63-.35.87-.27l2.05.82c.08.03.2-.02.26-.12.07-.1.1-.24.05-.34l-1.02-2.5c-.12-.25-.09-.48.05-.77.57-1.14 1.21-1.71 1.8-2.56.09-.1.1-.25.05-.35-.04-.1-.13-.14-.23-.11l-2.5.88c-.23.09-.27-.14-.37-.28l-1.12-2.36c-.03-.08-.1-.12-.16-.12Zm-9.2 8.34a.1.1 0 0 0-.09.02l-1.53 1.08c-.15.1-.2-.03-.28-.1l-1.04-1.32c-.03-.04-.07-.07-.11-.05a.12.12 0 0 0-.05.02.3.3 0 0 0-.1.23l.08 2.13c-.03.13-.03.26-.18.38L.1 18.6a.32.32 0 0 0-.1.23c0 .08.06.14.12.16l1.32-.04c.27.01.33.22.37.7L2 21.67c0 .1.05.15.1.16.07 0 .15-.05.18-.12.27-.65.47-1.2.75-1.89.13-.36.36-.36.53-.35l1.46.13c.06 0 .12-.05.15-.14.04-.08.04-.18 0-.24l-1-1.43c-.11-.14-.11-.3-.07-.52.23-.85.59-1.37.88-2.05a.3.3 0 0 0-.02-.24c-.02-.02-.04-.04-.08-.04ZM33 23.65c-.27.01-.25.4-.27.66-.67 18.25-.64 37.22 11.61 56.35 1.94 2.97 2.23-1.06 1.38-4.07-1.52-6.97-4.14-13.77-1.15-20.83 3.44-5.62 8.75-7.4 12.53-12.01.5-.54.73-1.41.54-2.06-.2-.65-2.43-.04-3.07.08l-9.9 1.8c-2.77.6-4.69-1.57-5.43-3.33L34.2 24.57c-.18-.55-.9-.92-1.2-.92ZM16.07 39.68c-.75 0-1.53.24-2.34.83-1.46 1.1-1.82 2.84-.36 4.63 1.46 1.78 4.58 2.22 5.64 1.66 1.68-.88 1.3-3.58.63-4.65-.92-1.49-2.16-2.46-3.57-2.47Z"/><path fill="#004494" d="M31.33 24.06c-.06 0-.17.1-.3.33-.6.96-1.3 2.87-1.45 3.43-1.47 4.3-1.76 4.55-4.38 12.88-1.01 2.77-2.58 6.5-5.43 6.93L8.44 49.65c-2.84.66-4.07 1.97-1.73 3.45 2.5 1.54 6.14 2.24 9.86 4.7 2.35 1.34 2.04 4.6 1.1 8.82l-3.63 16.23c-.18.73.05 1.5.56 1.82.52.33 1.26.18 1.78-.34 4.37-7.61 7.74-15.98 15.82-11.11 4.04 3.04 4.05 1.56 3-.6-7.28-16.26-5.76-29.56-3.81-48.15.04-.25.03-.41-.06-.41Zm13.62 9.76c-.64 0-1.32.22-2.04.66-1.93 1.18-3.42 4.39-2.6 5.54 1.38 1.93 3.5 1.45 4.74.72 2.66-1.56 3.9-3.07 2.45-5.45a3 3 0 0 0-2.55-1.47ZM89.92 52.72c-1.36 0-2.9 1.22-4.56 3.65a30.54 30.54 0 0 0-3.9 8.17c-1.03 3.33-1.4 6.2-1.08 8.6.69 5.65 2.72 8.47 6.08 8.47 1.65 0 3.4-.38 5.22-1.16 1.5-.6 2.84-1.38 4.01-2.3 1.07-.84 1.6-1.43 1.56-1.76-.83-3.58-1.66-5.9-2.48-6.97-.76-1.01-2.02-1.53-3.75-1.53l-.34-.03h-.75c-2.93 0-4.3.8-4.1 2.37.08.59.6 1.07 1.55 1.46 1.27.51 1.93.78 1.97.82.05.04.08.16.13.38a7.84 7.84 0 0 1 .1 1.12c.1.69-.18 1.27-.8 1.76-.52.36-1 .55-1.46.55a4.98 4.98 0 0 1-4.78-4.63c-.22-1.6.58-4.32 2.4-8.14 1.76-3.74 3.1-5.7 3.98-5.9.6-.14 1.09.27 1.46 1.24.07.17.31 1.08.74 2.76.28 1.06.57 1.58.9 1.58.63 0 1.21-.81 1.7-2.41.48-1.5.65-2.8.52-3.88a4.74 4.74 0 0 0-1.77-3.16 4.03 4.03 0 0 0-2.55-1.06Zm-14.57.3c-.34 0-.64.21-.91.62-.27 2.95-.64 6.1-1.13 9.47-.47 3.37-.76 5.55-.85 6.53-.17 2.02-.15 3.94.07 5.79.26 2.03.82 3.06 1.72 3.06.22 0 .48-.19.75-.55-.08-3.86-.04-6.59.1-8.19l1.05-7.91c.36-3.12.36-5.9 0-8.3-.3-.35-.55-.52-.8-.52ZM105 54.09c-2.07 0-3.28.29-3.63.86-.33.48-.75 3.02-1.26 7.6-.55 4.82-.71 8.13-.49 9.95.17 1.4.56 2.38 1.15 2.97.51.5 1.26.74 2.24.74 1.43 0 3.14-.65 5.1-1.98 2.06-1.4 3.27-2.82 3.64-4.26a4.1 4.1 0 0 0-1.23-1.53 1.83 1.83 0 0 0-1-.22c-.16 0-1.05.47-2.66 1.37-1.63.92-2.5 1.37-2.66 1.37-.71 0-1.21-.09-1.46-.27.07-2.27.44-3.8 1.14-4.54.53-.6 1.64-1.02 3.34-1.3 2.63-.44 4.65-.88 6.06-1.35.05-.18.07-.38.05-.56-.05-.44-.3-.8-.75-1.08s-.9-.42-1.39-.42c-.59 0-1.8.11-3.65.31-1.74.2-3 .3-3.76.28l-.14-1.16c-.18-1.44.05-2.41.67-2.94.41-.36 1.16-.56 2.23-.56h.55l.56.05c.53 0 .95-.04 1.27-.1l.16-1.26c-.69-.97-1.36-1.58-2.02-1.8a7.56 7.56 0 0 0-2.06-.17Zm-40.5.84c-1.84 0-3.95.35-6.07 1.15a6.4 6.4 0 0 0-1.82.97 9.96 9.96 0 0 0-1.32 2.57c-.2.95-.38 2.22-.73 4.75-.68 4.95-.17 7.53.08 9.38.17 1.45.6 2.47 1.27 3.07.57.5 1.42.77 2.53.77 1.64 0 3.58-.7 5.84-2.05 2.35-1.44 3.75-2.9 4.17-4.37a4.1 4.1 0 0 0-1.37-1.58 2.23 2.23 0 0 0-1.15-.22c-.17 0-1.17.48-3.02 1.41a22.1 22.1 0 0 1-3.03 1.4c-.83 0-1.38-.1-1.66-.29.1-2.33.54-3.86 1.33-4.64.61-.6 1.9-1.05 3.85-1.33 2.99-.47 5.27-.92 6.88-1.39.05-.19.08-.4.06-.59-.05-.45-.33-.8-.84-1.09a3.07 3.07 0 0 0-1.54-.44c-.67 0-2.06.1-4.16.32-2 .2-3.44.3-4.3.28l-.12-1.18c-.19-1.48.08-2.48.78-3.01.5-.38 1.33-.58 2.56-.58h.62c.29.02.97-.17 1.1-.17 1.33-.02 2.17-.02 3.39-.55.3-.39.19-.66.16-.92-.03-.27.23-.73.2-1a9.2 9.2 0 0 0-3.68-.67Z"/><path fill="#FED000" d="M81.37 49.7c.03.87-1.16 2.23-3 2.5-1.13.16-3.54-.67-3.63-1.52-.06-.71 2.38-2.87 3.81-3.18 1.65-.37 2.5.24 2.82 2.2Z"/><path fill="#646265" d="M131.51 61.5h-3.64V55h3.64v.72h-2.82v2.03h2.66v.71h-2.66v2.33h2.82v.71ZM136.84 56.62v4.88h-.65l-.12-.64h-.04a1.4 1.4 0 0 1-.66.56c-.28.12-.58.18-.9.18-.59 0-1.03-.14-1.33-.43-.3-.28-.45-.73-.45-1.35v-3.2h.82v3.15c0 .77.36 1.16 1.08 1.16.54 0 .92-.15 1.13-.45.22-.3.32-.75.32-1.32v-2.54h.8ZM140.68 56.53a2.92 2.92 0 0 1 .57.05l-.1.74a2.54 2.54 0 0 0-.53-.06c-.25 0-.49.07-.7.2-.22.14-.4.33-.53.58-.13.24-.2.53-.2.86v2.6h-.8v-4.88h.66l.09.9h.04c.15-.28.35-.5.6-.7.26-.2.56-.3.9-.3ZM146.43 59.05c0 .8-.2 1.44-.62 1.88-.41.44-.96.67-1.66.67-.44 0-.82-.1-1.16-.3-.34-.2-.6-.49-.8-.86-.2-.39-.3-.85-.3-1.39 0-.8.2-1.43.61-1.86.4-.44.96-.66 1.67-.66.44 0 .83.1 1.17.3.34.2.6.48.8.85.2.37.3.83.3 1.37Zm-3.7 0c0 .58.11 1.03.34 1.37.23.34.6.5 1.1.5.49 0 .85-.16 1.08-.5.23-.34.35-.8.35-1.37 0-.58-.12-1.03-.35-1.36-.23-.33-.6-.49-1.1-.49-.5 0-.86.17-1.09.5-.22.32-.33.77-.33 1.35ZM150.04 56.53c.6 0 1.1.2 1.46.62.37.42.55 1.06.55 1.9 0 .83-.18 1.46-.55 1.9-.37.43-.86.64-1.47.64-.38 0-.69-.07-.94-.2-.24-.15-.44-.31-.58-.5h-.05a19.23 19.23 0 0 0 .05.8v2h-.8V56.6h.65l.11.67h.04c.15-.21.34-.4.58-.54.24-.14.56-.21.95-.21Zm-.14.67c-.5 0-.86.14-1.06.42-.21.28-.32.7-.33 1.28v.15c0 .6.1 1.07.3 1.4.2.32.57.48 1.1.48.3 0 .54-.08.74-.24.2-.16.34-.39.43-.67.1-.29.14-.61.14-.98 0-.56-.1-1-.32-1.34-.22-.33-.55-.5-1-.5ZM155.27 56.53c.42 0 .78.09 1.08.27.3.18.54.44.7.77.16.33.24.72.24 1.16v.49h-3.35c0 .55.15.97.42 1.26.27.29.65.43 1.14.43a3.53 3.53 0 0 0 1.57-.33v.7a3.81 3.81 0 0 1-1.61.32c-.47 0-.88-.1-1.24-.29a1.96 1.96 0 0 1-.82-.83c-.2-.37-.3-.84-.3-1.38 0-.54.1-1 .27-1.38.18-.38.44-.68.76-.88a2.1 2.1 0 0 1 1.14-.31Zm0 .65c-.39 0-.7.13-.91.37-.23.25-.36.59-.4 1.03h2.5c0-.42-.1-.75-.3-1.01-.19-.26-.49-.39-.9-.39ZM160.4 56.53c.6 0 1.04.13 1.32.4.29.26.43.67.43 1.24v3.33h-.58l-.16-.7h-.03c-.22.28-.44.47-.68.6-.24.13-.56.2-.97.2-.44 0-.81-.12-1.1-.35-.3-.24-.44-.6-.44-1.1 0-.5.19-.87.57-1.13.39-.26.98-.4 1.78-.43l.83-.03v-.3c0-.4-.09-.68-.26-.84a1.09 1.09 0 0 0-.76-.24c-.25 0-.5.04-.73.12-.23.07-.44.16-.64.26l-.25-.6a3.62 3.62 0 0 1 1.67-.43Zm.96 2.59-.73.02c-.6.03-1.03.12-1.26.3a.84.84 0 0 0-.36.72c0 .27.09.47.26.6.16.13.38.19.64.19.41 0 .75-.11 1.03-.34.28-.23.42-.58.42-1.06v-.43ZM166.03 56.53c.59 0 1.03.14 1.33.43.3.28.44.74.44 1.36v3.18h-.8v-3.12c0-.79-.36-1.18-1.1-1.18-.53 0-.9.15-1.11.46-.21.3-.31.74-.31 1.31v2.54h-.81v-4.9h.65l.12.68h.04c.16-.26.38-.45.66-.58.28-.12.58-.18.89-.18ZM173.48 61.5h-2.36v-.47l.76-.17v-5.21l-.76-.18v-.48h2.36v.48l-.77.18v5.2l.77.18v.47ZM177 56.53c.58 0 1.02.14 1.32.43.3.28.45.74.45 1.36v3.18h-.8v-3.12c0-.79-.36-1.18-1.1-1.18-.54 0-.91.15-1.12.46-.2.3-.31.74-.31 1.31v2.54h-.8v-4.9h.64l.12.68h.04c.16-.26.38-.45.66-.58.29-.12.58-.18.9-.18ZM183.5 60.15c0 .48-.18.83-.53 1.08-.36.24-.83.36-1.43.36-.34 0-.63-.02-.88-.08a2.74 2.74 0 0 1-.66-.23v-.72c.2.1.43.18.71.26.28.09.56.13.85.13.41 0 .7-.07.89-.2a.62.62 0 0 0 .17-.85c-.07-.1-.19-.2-.36-.3-.17-.1-.42-.2-.75-.33a6.91 6.91 0 0 1-.8-.36c-.24-.12-.4-.27-.53-.44a1.1 1.1 0 0 1-.18-.65c0-.41.17-.73.5-.96.34-.22.79-.34 1.34-.34a3.59 3.59 0 0 1 1.56.33l-.28.64c-.2-.08-.42-.16-.64-.22-.23-.06-.46-.1-.7-.1-.33 0-.58.06-.75.17-.18.1-.27.25-.27.43 0 .14.05.25.13.35.07.09.2.18.4.27.18.1.43.2.74.31.3.12.57.23.8.36.21.12.38.27.5.44.11.18.17.4.17.65ZM186.54 60.94a2.83 2.83 0 0 0 .68-.1v.6c-.09.05-.2.09-.36.11a1.92 1.92 0 0 1-1.17-.09c-.22-.08-.4-.23-.53-.45s-.2-.53-.2-.93v-2.84h-.7v-.38l.7-.32.33-1.04h.47v1.12h1.42v.62h-1.42v2.82c0 .3.08.52.22.66.15.15.33.22.56.22ZM188.68 54.78c.12 0 .23.05.32.13.1.08.14.2.14.39 0 .17-.05.3-.14.38-.1.09-.2.13-.32.13a.48.48 0 0 1-.34-.13c-.1-.08-.14-.2-.14-.38s.05-.3.14-.4c.09-.07.2-.12.34-.12Zm.39 1.84v4.88h-.8v-4.88h.8ZM192.35 60.94a2.85 2.85 0 0 0 .69-.1v.6c-.09.05-.2.09-.37.11a1.91 1.91 0 0 1-1.17-.09c-.21-.08-.39-.23-.52-.45-.14-.22-.2-.53-.2-.93v-2.84h-.7v-.38l.7-.32.32-1.04h.48v1.12H193v.62h-1.42v2.82c0 .3.07.52.21.66.15.15.34.22.56.22ZM198.18 56.62v4.88h-.66l-.12-.64h-.03a1.4 1.4 0 0 1-.66.56c-.28.12-.58.18-.9.18-.6 0-1.03-.14-1.34-.43-.3-.28-.44-.73-.44-1.35v-3.2h.81v3.15c0 .77.36 1.16 1.09 1.16.54 0 .92-.15 1.13-.45.2-.3.32-.75.32-1.32v-2.54h.8ZM201.46 60.94a2.85 2.85 0 0 0 .69-.1v.6c-.1.05-.21.09-.37.11a1.91 1.91 0 0 1-1.17-.09c-.21-.08-.4-.23-.53-.45s-.2-.53-.2-.93v-2.84h-.7v-.38l.71-.32.32-1.04h.48v1.12h1.41v.62h-1.41v2.82c0 .3.07.52.21.66.15.15.34.22.56.22ZM205.02 56.53c.41 0 .77.09 1.08.27.3.18.53.44.7.77.16.33.24.72.24 1.16v.49h-3.36c.02.55.16.97.43 1.26.27.29.65.43 1.13.43a3.54 3.54 0 0 0 1.57-.33v.7a3.8 3.8 0 0 1-1.6.32c-.47 0-.89-.1-1.24-.29a1.97 1.97 0 0 1-.83-.83c-.2-.37-.3-.84-.3-1.38 0-.54.1-1 .28-1.38.18-.38.43-.68.75-.88.34-.21.72-.31 1.15-.31Zm-.01.65c-.38 0-.7.13-.91.37-.22.25-.36.59-.4 1.03h2.5c0-.42-.1-.75-.3-1.01-.18-.26-.48-.39-.9-.39ZM130.01 70.31h-1.23v4.27h-.8V70.3h-.87v-.37l.86-.28v-.28c0-.63.14-1.09.42-1.36a1.6 1.6 0 0 1 1.18-.42 2.6 2.6 0 0 1 .95.17l-.21.62-.34-.09a1.66 1.66 0 0 0-.4-.04c-.26 0-.46.09-.6.26-.12.18-.19.46-.19.85v.32h1.23v.62ZM135.2 72.12c0 .81-.22 1.44-.63 1.88-.41.45-.96.67-1.66.67-.44 0-.82-.1-1.16-.3-.34-.2-.6-.48-.8-.86-.2-.38-.3-.84-.3-1.38 0-.81.2-1.43.61-1.87.4-.44.96-.66 1.67-.66.44 0 .83.1 1.17.3.34.2.6.48.8.86.2.36.3.82.3 1.36Zm-3.71 0c0 .58.11 1.04.34 1.37.23.34.6.51 1.1.51.49 0 .85-.17 1.08-.5.23-.34.35-.8.35-1.38 0-.57-.12-1.03-.35-1.35-.23-.33-.6-.5-1.1-.5-.5 0-.86.17-1.09.5-.22.32-.33.78-.33 1.35ZM138.76 69.6a2.93 2.93 0 0 1 .57.05l-.1.74a2.45 2.45 0 0 0-.53-.06c-.25 0-.48.07-.7.2-.22.14-.4.34-.53.58-.13.25-.2.53-.2.86v2.61h-.8v-4.89h.66l.09.9h.04c.15-.27.35-.5.6-.7.26-.2.56-.29.9-.29ZM145.4 71.14h2.26v3.19a6.55 6.55 0 0 1-2.3.34c-.68 0-1.25-.14-1.71-.4a2.63 2.63 0 0 1-1.06-1.17c-.24-.5-.36-1.1-.36-1.78 0-.67.13-1.26.4-1.77.26-.5.65-.88 1.15-1.16.51-.28 1.12-.42 1.83-.42a5.27 5.27 0 0 1 1.95.38l-.3.71c-.24-.1-.5-.18-.8-.26a3.55 3.55 0 0 0-.9-.11c-.77 0-1.38.24-1.82.7-.43.48-.65 1.12-.65 1.93 0 .51.08.97.25 1.37.17.4.43.7.8.93.35.22.83.33 1.4.33a4.91 4.91 0 0 0 1.29-.15v-1.94h-1.44v-.72ZM151.1 69.6c.41 0 .77.1 1.08.27.3.19.53.44.7.77.16.33.24.72.24 1.16v.49h-3.36c.01.55.15.97.42 1.26.28.3.65.44 1.14.44a3.53 3.53 0 0 0 1.57-.34v.7a3.79 3.79 0 0 1-1.6.32c-.48 0-.89-.1-1.24-.28a1.96 1.96 0 0 1-.83-.84c-.2-.37-.3-.83-.3-1.38 0-.53.1-.99.27-1.38.18-.38.44-.67.76-.88.33-.2.71-.31 1.15-.31Zm-.01.66c-.39 0-.7.12-.91.36-.23.25-.36.59-.4 1.03h2.5c0-.41-.1-.75-.3-1-.19-.27-.49-.4-.9-.4ZM156.75 69.6c.58 0 1.02.14 1.32.43.3.28.45.74.45 1.37v3.18h-.8v-3.13c0-.78-.36-1.17-1.1-1.17-.54 0-.91.15-1.12.45-.2.3-.3.74-.3 1.32v2.53h-.81v-4.89h.65l.11.67h.05c.16-.26.38-.45.66-.57.28-.13.58-.2.89-.2ZM161.8 74.67c-.62 0-1.1-.21-1.47-.64-.36-.42-.55-1.05-.55-1.89 0-.84.19-1.47.56-1.9.37-.43.86-.64 1.47-.64.38 0 .68.07.92.2.24.15.44.32.6.52h.05a4.04 4.04 0 0 1-.06-.72v-1.95h.8v6.93h-.64l-.12-.66h-.04c-.15.21-.34.39-.59.53-.23.14-.55.22-.94.22Zm.12-.67c.52 0 .89-.14 1.1-.42.2-.28.31-.71.31-1.28v-.14c0-.61-.1-1.08-.3-1.4-.2-.33-.57-.5-1.12-.5-.43 0-.76.18-.97.52-.22.35-.33.8-.33 1.39 0 .58.11 1.03.33 1.35.22.32.55.48.98.48ZM167.58 69.6c.42 0 .78.1 1.08.27.3.19.54.44.7.77.16.33.24.72.24 1.16v.49h-3.35c.01.55.15.97.42 1.26.27.3.65.44 1.14.44a3.53 3.53 0 0 0 1.57-.34v.7a3.79 3.79 0 0 1-1.61.32c-.47 0-.88-.1-1.23-.28a1.96 1.96 0 0 1-.83-.84c-.2-.37-.3-.83-.3-1.38 0-.53.1-.99.27-1.38.18-.38.44-.67.76-.88.33-.2.71-.31 1.14-.31Zm0 .66c-.39 0-.7.12-.92.36-.22.25-.35.59-.4 1.03h2.5c0-.41-.1-.75-.29-1-.19-.27-.49-.4-.9-.4ZM173.16 69.6a2.93 2.93 0 0 1 .58.05l-.1.74a2.5 2.5 0 0 0-.53-.06c-.25 0-.49.07-.7.2-.23.14-.4.34-.53.58-.13.25-.2.53-.2.86v2.61h-.8v-4.89h.65l.1.9h.03c.16-.27.36-.5.61-.7.25-.2.55-.29.9-.29ZM180.6 74.58h-3.64v-6.51h3.65v.72h-2.83v2.03h2.66v.71h-2.66v2.33h2.83v.72ZM185.18 76.76v-2.08a7.92 7.92 0 0 1 .05-.76h-.05c-.15.2-.34.38-.59.53-.25.14-.56.22-.95.22-.6 0-1.07-.21-1.44-.63-.37-.43-.56-1.06-.56-1.9 0-.83.19-1.47.56-1.9.38-.42.87-.64 1.46-.64.38 0 .7.08.94.22.25.15.44.33.59.54h.04l.12-.66h.64v7.07h-.8Zm-1.4-2.76c.5 0 .87-.13 1.08-.41.21-.28.32-.7.33-1.27v-.17c0-.62-.1-1.09-.3-1.4-.21-.33-.58-.48-1.11-.48-.44 0-.77.17-.98.51-.22.34-.32.8-.32 1.38 0 .58.1 1.03.32 1.36.2.32.54.48.99.48ZM191.64 69.69v4.89h-.66l-.12-.65h-.03a1.4 1.4 0 0 1-.66.56c-.28.12-.58.18-.9.18-.6 0-1.04-.14-1.34-.42-.3-.28-.44-.74-.44-1.36v-3.2h.81v3.15c0 .78.36 1.17 1.09 1.17.54 0 .92-.15 1.13-.46.2-.3.32-.74.32-1.31v-2.55h.8ZM195.03 69.6c.6 0 1.04.14 1.33.4.28.26.43.67.43 1.25v3.33h-.59l-.15-.7H196a2.3 2.3 0 0 1-.68.6c-.24.12-.56.19-.97.19-.44 0-.8-.12-1.1-.35-.3-.23-.44-.6-.44-1.1 0-.49.2-.86.58-1.13.38-.26.97-.4 1.77-.43l.84-.03v-.29c0-.4-.1-.69-.27-.85-.18-.16-.43-.23-.75-.23-.26 0-.5.03-.73.1-.23.08-.45.17-.65.27l-.25-.6a3.62 3.62 0 0 1 1.67-.42Zm.96 2.59-.72.03c-.61.02-1.04.12-1.27.29a.84.84 0 0 0-.35.72c0 .27.08.47.25.6.17.13.38.2.64.2.41 0 .75-.12 1.03-.35.28-.23.42-.58.42-1.05v-.44ZM199.1 74.58h-.8v-6.93h.8v6.93ZM201.07 67.86c.12 0 .23.04.32.12.1.08.14.21.14.39 0 .17-.05.3-.14.39-.1.08-.2.12-.32.12a.48.48 0 0 1-.34-.12c-.1-.08-.14-.21-.14-.39 0-.18.05-.3.14-.39.1-.08.2-.12.34-.12Zm.39 1.83v4.89h-.8v-4.9h.8ZM204.74 74.01a2.85 2.85 0 0 0 .69-.1v.61a2.68 2.68 0 0 1-.82.15c-.26 0-.5-.05-.72-.13-.21-.09-.39-.24-.52-.46-.14-.22-.2-.53-.2-.92V70.3h-.7v-.38l.7-.32.33-1.04h.47v1.12h1.42v.62h-1.42v2.83c0 .3.07.52.22.66.14.14.33.21.55.21ZM206.04 69.69h.86l1.06 2.78c.1.25.18.49.25.7.07.22.13.43.17.63h.04a27 27 0 0 1 .42-1.34l1-2.77h.86l-2.11 5.56c-.18.46-.4.83-.67 1.1-.27.28-.64.41-1.12.41a2.5 2.5 0 0 1-.66-.07v-.64l.24.03c.1.02.2.02.3.02.28 0 .5-.08.67-.24.17-.15.3-.36.41-.62l.26-.65-1.98-4.9Z"/></svg>